<?xml version="1.0" encoding="utf-8"?>
<!-- Generator: Adobe Illustrator 23.1.0, SVG Export Plug-In . SVG Version: 6.00 Build 0)  -->
<svg version="1.1" id="Слой_1" xmlns="http://www.w3.org/2000/svg" xmlns:xlink="http://www.w3.org/1999/xlink" x="0px" y="0px"
	 viewBox="0 0 850.39 595.28" style="enable-background:new 0 0 850.39 595.28;" xml:space="preserve">
<style type="text/css">
	.st0{fill:none;stroke:#000000;stroke-width:2.6663;stroke-miterlimit:10;}
	.st1{fill:none;stroke:#000000;stroke-width:6.1083;stroke-miterlimit:10;}
	.st2{fill:#009A7E;}
</style>
<path class="st0" d="M335.41,258.69"/>
<path class="st0" d="M543.98,341.03"/>
<path class="st1" d="M607.7,298.59c0,105.01-79.04,190.16-184.05,190.16"/>
<path class="st1" d="M327.06,170.78c0-25.81,20.93-46.74,46.74-46.74c25.88,0,46.8,20.93,46.8,46.74
	c0-25.81,20.96-46.74,46.77-46.74c25.84,0,46.8,20.93,46.8,46.74c0-25.81,20.93-46.74,46.74-46.74c25.88,0,46.8,20.93,46.8,46.74"/>
<path class="st1" d="M420.59,253.2c0,25.88-20.96,46.83-46.83,46.83c-25.84,0-46.8-20.96-46.8-46.83"/>
<path class="st1" d="M326.96,300.03c25.88,0,46.83,20.96,46.83,46.83c0,25.84-20.96,46.8-46.83,46.8"/>
<path class="st1" d="M279.84,300.03c-25.88,0-46.83,20.96-46.83,46.83c0,25.84,20.96,46.8,46.83,46.8"/>
<path class="st1" d="M514.23,253.2c0,25.88-20.96,46.83-46.83,46.83c-25.84,0-46.8-20.96-46.8-46.83"/>
<path class="st1" d="M607.86,253.2c0,25.88-20.96,46.83-46.83,46.83c-25.84,0-46.8-20.96-46.8-46.83"/>
<circle class="st2" cx="279.77" cy="210.4" r="36.66"/>
<circle class="st1" cx="279.77" cy="210.4" r="46.77"/>
</svg>
